<svg width="27.557274" height="7.452240" viewBox="0 0 27.5573 7.45224" fill="none" xmlns="http://www.w3.org/2000/svg" xmlns:xlink="http://www.w3.org/1999/xlink">
	<desc>
			Created with Pixso.
	</desc>
	<defs/>
	<path id="Vector" d="M5.3 3.18L2.99 3.18C2.96 3.18 2.93 3.2 2.91 3.22C2.89 3.24 2.88 3.26 2.88 3.29L2.88 4.43C2.88 4.45 2.89 4.48 2.91 4.5C2.93 4.52 2.96 4.53 2.99 4.53L3.89 4.53L3.89 5.94C3.89 5.94 3.69 6.01 3.13 6.01C2.47 6.01 1.54 5.77 1.54 3.74C1.54 1.7 2.5 1.43 3.41 1.43C4.19 1.43 4.53 1.57 4.74 1.64C4.81 1.66 4.87 1.59 4.87 1.53L5.13 0.44C5.13 0.42 5.13 0.41 5.12 0.39C5.11 0.38 5.1 0.36 5.09 0.35C5 0.29 4.47 0 3.13 0C1.58 0 0 0.65 0 3.81C0 6.98 1.81 7.45 3.34 7.45C4.61 7.45 5.38 6.91 5.38 6.91C5.41 6.89 5.41 6.84 5.41 6.82L5.41 3.29C5.41 3.26 5.4 3.24 5.38 3.22C5.36 3.2 5.33 3.18 5.3 3.18ZM17.13 0.27L15.83 0.27C15.81 0.27 15.8 0.27 15.78 0.27C15.77 0.28 15.76 0.29 15.75 0.3C15.74 0.31 15.73 0.32 15.73 0.33C15.72 0.35 15.72 0.36 15.72 0.37L15.72 2.89L13.69 2.89L13.69 0.37C13.69 0.36 13.68 0.35 13.68 0.33C13.67 0.32 13.66 0.31 13.65 0.3C13.64 0.29 13.63 0.28 13.62 0.27C13.61 0.27 13.59 0.27 13.58 0.27L12.27 0.27C12.26 0.27 12.25 0.27 12.23 0.27C12.22 0.28 12.21 0.29 12.2 0.3C12.19 0.31 12.18 0.32 12.17 0.33C12.17 0.35 12.17 0.36 12.17 0.37L12.17 7.2C12.17 7.26 12.21 7.31 12.27 7.31L13.58 7.31C13.59 7.31 13.61 7.3 13.62 7.3C13.63 7.29 13.64 7.28 13.65 7.27C13.66 7.26 13.67 7.25 13.68 7.24C13.68 7.23 13.69 7.21 13.69 7.2L13.69 4.28L15.72 4.28L15.71 7.2C15.71 7.26 15.76 7.31 15.82 7.31L17.13 7.31C17.14 7.31 17.16 7.3 17.17 7.3C17.18 7.29 17.2 7.28 17.21 7.27C17.22 7.26 17.22 7.25 17.23 7.24C17.23 7.23 17.24 7.21 17.24 7.2L17.24 0.37C17.24 0.31 17.19 0.27 17.13 0.27ZM6.92 0.42C6.46 0.42 6.08 0.8 6.08 1.27C6.08 1.74 6.46 2.12 6.92 2.12C7.39 2.12 7.76 1.74 7.76 1.27C7.76 0.8 7.39 0.42 6.92 0.42ZM7.56 2.5L6.26 2.5C6.2 2.5 6.15 2.56 6.15 2.62L6.15 7.13C6.15 7.27 6.23 7.31 6.34 7.31L7.51 7.31C7.64 7.31 7.67 7.24 7.67 7.13L7.67 5.76L7.67 2.61C7.67 2.59 7.67 2.58 7.66 2.57C7.66 2.55 7.65 2.54 7.64 2.53C7.63 2.52 7.62 2.51 7.6 2.51C7.59 2.5 7.58 2.5 7.56 2.5ZM22.19 2.51L20.9 2.51C20.88 2.51 20.87 2.51 20.86 2.52C20.84 2.52 20.83 2.53 20.82 2.54C20.81 2.55 20.8 2.56 20.8 2.58C20.79 2.59 20.79 2.6 20.79 2.62L20.79 5.96C20.79 5.96 20.46 6.2 20 6.2C19.53 6.2 19.41 5.99 19.41 5.54L19.41 2.62C19.41 2.6 19.4 2.59 19.4 2.58C19.39 2.56 19.38 2.55 19.37 2.54C19.36 2.53 19.35 2.52 19.34 2.52C19.33 2.51 19.31 2.51 19.3 2.51L17.98 2.51C17.96 2.51 17.93 2.52 17.91 2.54C17.89 2.56 17.88 2.59 17.88 2.62L17.88 5.76C17.88 7.11 18.63 7.45 19.67 7.45C20.53 7.45 21.22 6.97 21.22 6.97C21.22 6.97 21.25 7.22 21.26 7.25C21.28 7.28 21.32 7.31 21.36 7.31L22.19 7.31C22.21 7.31 22.22 7.3 22.23 7.3C22.25 7.29 22.26 7.29 22.27 7.28C22.28 7.27 22.29 7.25 22.29 7.24C22.3 7.23 22.3 7.21 22.3 7.2L22.3 2.62C22.3 2.59 22.29 2.56 22.27 2.54C22.25 2.52 22.22 2.51 22.19 2.51L22.19 2.51ZM25.73 2.36C24.99 2.36 24.49 2.68 24.49 2.68L24.49 0.37C24.49 0.36 24.49 0.35 24.49 0.33C24.48 0.32 24.47 0.31 24.46 0.3C24.45 0.29 24.44 0.28 24.43 0.27C24.41 0.27 24.4 0.26 24.39 0.26L23.08 0.26C23.06 0.26 23.05 0.27 23.04 0.27C23.02 0.28 23.01 0.29 23 0.3C22.99 0.31 22.98 0.32 22.98 0.33C22.97 0.35 22.97 0.36 22.97 0.37L22.97 7.2C22.97 7.21 22.97 7.23 22.98 7.24C22.98 7.25 22.99 7.26 23 7.27C23.01 7.28 23.02 7.29 23.04 7.3C23.05 7.3 23.06 7.31 23.08 7.31L23.99 7.31C24.03 7.31 24.06 7.28 24.08 7.25C24.1 7.21 24.14 6.93 24.14 6.93C24.14 6.93 24.67 7.44 25.68 7.44C26.87 7.44 27.55 6.84 27.55 4.73C27.55 2.63 26.46 2.36 25.73 2.36L25.73 2.36ZM25.22 6.2C24.77 6.19 24.46 5.98 24.46 5.98L24.46 3.82C24.46 3.82 24.77 3.64 25.13 3.61C25.6 3.56 26.05 3.7 26.05 4.82C26.05 5.99 25.85 6.22 25.22 6.2L25.22 6.2ZM11.44 6.18C11.38 6.18 11.23 6.2 11.08 6.2C10.6 6.2 10.44 5.97 10.44 5.69L10.44 3.77L11.42 3.77C11.43 3.77 11.45 3.76 11.46 3.76C11.47 3.75 11.48 3.75 11.49 3.74C11.5 3.72 11.51 3.71 11.52 3.7C11.52 3.69 11.53 3.67 11.53 3.66L11.53 2.61C11.53 2.59 11.52 2.58 11.52 2.57C11.51 2.55 11.5 2.54 11.49 2.53C11.48 2.52 11.47 2.51 11.46 2.51C11.45 2.5 11.43 2.5 11.42 2.5L10.44 2.5L10.44 1.21C10.44 1.16 10.41 1.13 10.36 1.13L9.02 1.13C8.97 1.13 8.94 1.16 8.94 1.21L8.94 2.54C8.94 2.54 8.28 2.7 8.23 2.71C8.21 2.72 8.19 2.74 8.17 2.75C8.16 2.77 8.15 2.8 8.15 2.82L8.15 3.66C8.15 3.67 8.16 3.69 8.16 3.7C8.17 3.71 8.17 3.72 8.18 3.73C8.19 3.74 8.21 3.75 8.22 3.76C8.23 3.76 8.25 3.77 8.26 3.77L8.94 3.77L8.94 5.79C8.94 7.28 10 7.43 10.71 7.43C11.03 7.43 11.42 7.33 11.48 7.3C11.52 7.29 11.54 7.25 11.54 7.21L11.54 6.28C11.54 6.25 11.53 6.23 11.51 6.21C11.49 6.19 11.46 6.18 11.44 6.17L11.44 6.18Z" fill="#FFFFFF" fill-opacity="1.000000" fill-rule="nonzero"/>
</svg>
