<svg width="18.413210" height="17.958389" viewBox="0 0 18.4132 17.9584" fill="none" xmlns="http://www.w3.org/2000/svg" xmlns:xlink="http://www.w3.org/1999/xlink">
	<desc>
			Created with Pixso.
	</desc>
	<defs/>
	<path id="Vector" d="M9.2 0C4.12 0 0 4.12 0 9.2C0 13.27 2.63 16.72 6.29 17.94C6.75 18.02 6.92 17.74 6.92 17.5C6.92 17.28 6.91 16.55 6.91 15.78C4.35 16.34 3.81 14.69 3.81 14.69C3.39 13.63 2.78 13.35 2.78 13.35C1.95 12.78 2.85 12.79 2.85 12.79C3.77 12.85 4.26 13.74 4.26 13.74C5.08 15.14 6.41 14.74 6.94 14.5C7.02 13.91 7.26 13.5 7.52 13.27C5.48 13.04 3.33 12.25 3.33 8.72C3.33 7.72 3.69 6.89 4.28 6.25C4.18 6.02 3.86 5.08 4.36 3.81C4.36 3.81 5.14 3.57 6.9 4.76C7.63 4.55 8.42 4.45 9.2 4.45C9.98 4.45 10.77 4.55 11.51 4.76C13.27 3.57 14.04 3.81 14.04 3.81C14.54 5.08 14.22 6.02 14.13 6.25C14.72 6.89 15.08 7.72 15.08 8.72C15.08 12.26 12.92 13.04 10.87 13.26C11.2 13.55 11.5 14.11 11.5 14.97C11.5 16.2 11.49 17.19 11.49 17.49C11.49 17.74 11.65 18.03 12.12 17.94C15.77 16.72 18.41 13.27 18.41 9.2C18.41 4.12 14.29 0 9.2 0Z" fill="#FFFFFF" fill-opacity="1.000000" fill-rule="evenodd"/>
</svg>
