<svg width="27.557274" height="27.372040" viewBox="0 0 27.5573 27.372" fill="none" xmlns="http://www.w3.org/2000/svg" xmlns:xlink="http://www.w3.org/1999/xlink">
	<desc>
			Created with Pixso.
	</desc>
	<defs/>
	<path id="Vector" d="M5.3 23.1L2.99 23.1C2.96 23.1 2.93 23.12 2.91 23.14C2.89 23.16 2.88 23.18 2.88 23.21L2.88 24.35C2.88 24.37 2.89 24.4 2.91 24.42C2.93 24.44 2.96 24.45 2.99 24.45L3.89 24.45L3.89 25.86C3.89 25.86 3.69 25.93 3.13 25.93C2.47 25.93 1.54 25.69 1.54 23.66C1.54 21.62 2.5 21.35 3.41 21.35C4.19 21.35 4.53 21.49 4.74 21.56C4.81 21.58 4.87 21.51 4.87 21.45L5.13 20.36C5.13 20.34 5.13 20.33 5.12 20.31C5.11 20.3 5.1 20.28 5.09 20.27C5 20.21 4.47 19.91 3.13 19.91C1.58 19.91 0 20.57 0 23.73C0 26.9 1.81 27.37 3.34 27.37C4.61 27.37 5.38 26.83 5.38 26.83C5.41 26.81 5.41 26.76 5.41 26.74L5.41 23.21C5.41 23.18 5.4 23.16 5.38 23.14C5.36 23.12 5.33 23.1 5.3 23.1ZM17.13 20.18L15.83 20.18C15.81 20.18 15.8 20.19 15.78 20.19C15.77 20.2 15.76 20.21 15.75 20.22C15.74 20.23 15.73 20.24 15.73 20.25C15.72 20.27 15.72 20.28 15.72 20.29L15.72 22.81L13.69 22.81L13.69 20.29C13.69 20.28 13.68 20.27 13.68 20.25C13.67 20.24 13.66 20.23 13.65 20.22C13.64 20.21 13.63 20.2 13.62 20.19C13.61 20.19 13.59 20.19 13.58 20.18L12.27 20.18C12.26 20.18 12.25 20.19 12.23 20.19C12.22 20.2 12.21 20.21 12.2 20.22C12.19 20.23 12.18 20.24 12.17 20.25C12.17 20.27 12.17 20.28 12.17 20.29L12.17 27.12C12.17 27.18 12.21 27.23 12.27 27.23L13.58 27.23C13.59 27.23 13.61 27.22 13.62 27.22C13.63 27.21 13.64 27.2 13.65 27.19C13.66 27.18 13.67 27.17 13.68 27.16C13.68 27.15 13.69 27.13 13.69 27.12L13.69 24.2L15.72 24.2L15.71 27.12C15.71 27.18 15.76 27.23 15.82 27.23L17.13 27.23C17.14 27.23 17.16 27.22 17.17 27.22C17.18 27.21 17.2 27.2 17.21 27.19C17.22 27.18 17.22 27.17 17.23 27.16C17.23 27.15 17.24 27.13 17.24 27.12L17.24 20.29C17.24 20.23 17.19 20.18 17.13 20.18ZM6.92 20.34C6.46 20.34 6.08 20.72 6.08 21.19C6.08 21.66 6.46 22.04 6.92 22.04C7.39 22.04 7.76 21.66 7.76 21.19C7.76 20.72 7.39 20.34 6.92 20.34ZM7.56 22.42L6.26 22.42C6.2 22.42 6.15 22.48 6.15 22.54L6.15 27.05C6.15 27.19 6.23 27.22 6.34 27.22L7.51 27.22C7.64 27.22 7.67 27.16 7.67 27.05L7.67 25.68L7.67 22.53C7.67 22.51 7.67 22.5 7.66 22.49C7.66 22.47 7.65 22.46 7.64 22.45C7.63 22.44 7.62 22.43 7.6 22.43C7.59 22.42 7.58 22.42 7.56 22.42ZM22.19 22.43L20.9 22.43C20.88 22.43 20.87 22.43 20.86 22.44C20.84 22.44 20.83 22.45 20.82 22.46C20.81 22.47 20.8 22.48 20.8 22.5C20.79 22.51 20.79 22.52 20.79 22.54L20.79 25.88C20.79 25.88 20.46 26.12 20 26.12C19.53 26.12 19.41 25.91 19.41 25.46L19.41 22.54C19.41 22.52 19.4 22.51 19.4 22.5C19.39 22.48 19.38 22.47 19.37 22.46C19.36 22.45 19.35 22.44 19.34 22.44C19.33 22.43 19.31 22.43 19.3 22.43L17.98 22.43C17.96 22.43 17.93 22.44 17.91 22.46C17.89 22.48 17.88 22.51 17.88 22.54L17.88 25.68C17.88 27.03 18.63 27.37 19.67 27.37C20.53 27.37 21.22 26.89 21.22 26.89C21.22 26.89 21.25 27.14 21.26 27.17C21.28 27.2 21.32 27.23 21.36 27.23L22.19 27.23C22.21 27.23 22.22 27.22 22.23 27.22C22.25 27.21 22.26 27.21 22.27 27.2C22.28 27.19 22.29 27.17 22.29 27.16C22.3 27.15 22.3 27.13 22.3 27.12L22.3 22.54C22.3 22.51 22.29 22.48 22.27 22.46C22.25 22.44 22.22 22.43 22.19 22.43L22.19 22.43ZM25.73 22.28C24.99 22.28 24.49 22.6 24.49 22.6L24.49 20.29C24.49 20.28 24.49 20.27 24.49 20.25C24.48 20.24 24.47 20.23 24.46 20.22C24.45 20.21 24.44 20.2 24.43 20.19C24.41 20.19 24.4 20.18 24.39 20.18L23.08 20.18C23.06 20.18 23.05 20.19 23.04 20.19C23.02 20.2 23.01 20.21 23 20.22C22.99 20.23 22.98 20.24 22.98 20.25C22.97 20.27 22.97 20.28 22.97 20.29L22.97 27.12C22.97 27.13 22.97 27.15 22.98 27.16C22.98 27.17 22.99 27.18 23 27.19C23.01 27.2 23.02 27.21 23.04 27.22C23.05 27.22 23.06 27.23 23.08 27.23L23.99 27.23C24.03 27.23 24.06 27.2 24.08 27.17C24.1 27.13 24.14 26.85 24.14 26.85C24.14 26.85 24.67 27.36 25.68 27.36C26.87 27.36 27.55 26.76 27.55 24.65C27.55 22.55 26.46 22.28 25.73 22.28L25.73 22.28ZM25.22 26.12C24.77 26.11 24.46 25.9 24.46 25.9L24.46 23.74C24.46 23.74 24.77 23.56 25.13 23.53C25.6 23.48 26.05 23.62 26.05 24.74C26.05 25.91 25.85 26.14 25.22 26.12L25.22 26.12ZM11.44 26.09C11.38 26.09 11.23 26.12 11.08 26.12C10.6 26.12 10.44 25.89 10.44 25.61L10.44 23.69L11.42 23.69C11.43 23.69 11.45 23.68 11.46 23.68C11.47 23.67 11.48 23.67 11.49 23.65C11.5 23.64 11.51 23.63 11.52 23.62C11.52 23.61 11.53 23.59 11.53 23.58L11.53 22.53C11.53 22.51 11.52 22.5 11.52 22.49C11.51 22.47 11.5 22.46 11.49 22.45C11.48 22.44 11.47 22.43 11.46 22.43C11.45 22.42 11.43 22.42 11.42 22.42L10.44 22.42L10.44 21.13C10.44 21.08 10.41 21.05 10.36 21.05L9.02 21.05C8.97 21.05 8.94 21.08 8.94 21.13L8.94 22.46C8.94 22.46 8.28 22.62 8.23 22.63C8.21 22.64 8.19 22.66 8.17 22.67C8.16 22.69 8.15 22.72 8.15 22.74L8.15 23.58C8.15 23.59 8.16 23.61 8.16 23.62C8.17 23.63 8.17 23.64 8.18 23.65C8.19 23.66 8.21 23.67 8.22 23.68C8.23 23.68 8.25 23.69 8.26 23.69L8.94 23.69L8.94 25.71C8.94 27.2 10 27.35 10.71 27.35C11.03 27.35 11.42 27.25 11.48 27.22C11.52 27.21 11.54 27.17 11.54 27.13L11.54 26.2C11.54 26.17 11.53 26.15 11.51 26.13C11.49 26.11 11.46 26.1 11.44 26.09L11.44 26.09Z" fill="#FFFFFF" fill-opacity="1.000000" fill-rule="nonzero"/>
	<path id="Vector" d="M13.77 0C8.69 0 4.57 4.12 4.57 9.2C4.57 13.27 7.2 16.72 10.86 17.94C11.32 18.02 11.49 17.74 11.49 17.5C11.49 17.28 11.48 16.55 11.48 15.78C8.92 16.34 8.38 14.69 8.38 14.69C7.96 13.63 7.36 13.35 7.36 13.35C6.52 12.78 7.42 12.79 7.42 12.79C8.34 12.85 8.83 13.74 8.83 13.74C9.65 15.14 10.98 14.74 11.51 14.5C11.59 13.91 11.83 13.5 12.09 13.27C10.05 13.04 7.9 12.25 7.9 8.72C7.9 7.72 8.26 6.89 8.85 6.25C8.75 6.02 8.44 5.08 8.94 3.81C8.94 3.81 9.71 3.57 11.47 4.76C12.2 4.55 12.99 4.45 13.77 4.45C14.56 4.45 15.34 4.55 16.08 4.76C17.84 3.57 18.61 3.81 18.61 3.81C19.11 5.08 18.8 6.02 18.7 6.25C19.29 6.89 19.65 7.72 19.65 8.72C19.65 12.26 17.49 13.04 15.44 13.26C15.77 13.55 16.07 14.11 16.07 14.97C16.07 16.2 16.06 17.19 16.06 17.49C16.06 17.74 16.22 18.03 16.69 17.94C20.35 16.72 22.98 13.27 22.98 9.2C22.98 4.12 18.86 0 13.77 0Z" fill="#FFFFFF" fill-opacity="1.000000" fill-rule="evenodd"/>
</svg>
