<svg width="20.000004" height="20.000008" viewBox="0 0 20 20" fill="none" xmlns="http://www.w3.org/2000/svg" xmlns:xlink="http://www.w3.org/1999/xlink">
	<desc>
			Created with Pixso.
	</desc>
	<defs/>
	<path id="Vector" d="M10 0C8.02 0 6.08 0.58 4.44 1.68C2.79 2.78 1.51 4.34 0.76 6.17C0 8 -0.2 10.01 0.19 11.95C0.57 13.89 1.53 15.67 2.92 17.07C4.32 18.46 6.1 19.42 8.04 19.8C9.98 20.19 11.99 19.99 13.82 19.23C15.65 18.48 17.21 17.2 18.31 15.55C19.41 13.91 20 11.97 20 10C20 8.68 19.74 7.38 19.23 6.17C18.73 4.95 17.99 3.85 17.07 2.92C16.14 2 15.04 1.26 13.82 0.76C12.61 0.25 11.31 -0.01 10 0ZM13.17 15.15C13.14 15.24 13.08 15.33 13.01 15.39C12.93 15.46 12.85 15.52 12.75 15.55C12.66 15.58 12.56 15.6 12.46 15.59C12.36 15.58 12.26 15.55 12.17 15.5L9.46 13.39L7.72 15C7.68 15.03 7.63 15.05 7.58 15.05C7.53 15.06 7.48 15.05 7.43 15.04L7.76 12.05L7.78 12.06L7.78 12C7.78 12 12.67 7.55 12.87 7.36C13.07 7.17 13 7.13 13 7.13C13.01 6.9 12.64 7.13 12.64 7.13L6.17 11.29L3.47 10.38C3.47 10.38 3.06 10.23 3.02 9.9C2.98 9.58 3.49 9.4 3.49 9.4L14.2 5.14C14.2 5.14 15.08 4.75 15.08 5.4L13.17 15.15Z" fill="#FFFFFF" fill-opacity="1.000000" fill-rule="nonzero"/>
</svg>
