<svg width="20.000000" height="20.000000" viewBox="0 0 20 20" fill="none" xmlns="http://www.w3.org/2000/svg" xmlns:xlink="http://www.w3.org/1999/xlink">
	<desc>
			Created with Pixso.
	</desc>
	<defs/>
	<path id="Vector" d="M10 4.05C6.75 4.05 4.11 6.69 4.11 9.93C4.11 11.04 4.42 12.13 5.01 13.06L5.15 13.29L4.55 15.45L6.78 14.87L7 15C7.9 15.54 8.93 15.82 9.99 15.82L10 15.82C13.24 15.82 15.95 13.18 15.95 9.94C15.95 8.37 15.27 6.89 14.16 5.78C13.04 4.66 11.57 4.05 10 4.05ZM13.45 12.46C13.31 12.87 12.6 13.25 12.26 13.3C11.7 13.38 11.26 13.34 10.14 12.86C8.37 12.09 7.21 10.3 7.12 10.19C7.03 10.07 6.4 9.23 6.4 8.36C6.4 7.49 6.85 7.06 7.02 6.88C7.18 6.7 7.37 6.66 7.49 6.66C7.61 6.66 7.73 6.66 7.83 6.66C7.94 6.66 8.08 6.62 8.23 6.96C8.37 7.32 8.73 8.19 8.77 8.28C8.82 8.37 8.85 8.47 8.79 8.58C8.45 9.26 8.08 9.24 8.27 9.55C8.95 10.72 9.63 11.13 10.67 11.65C10.85 11.74 10.95 11.73 11.06 11.61C11.16 11.49 11.5 11.09 11.62 10.91C11.73 10.74 11.85 10.77 12.01 10.83C12.17 10.88 13.04 11.31 13.22 11.4C13.4 11.49 13.52 11.54 13.56 11.61C13.6 11.69 13.6 12.05 13.45 12.46ZM17.85 0L2.14 0C0.95 0 0 0.95 0 2.14L0 17.85C0 19.04 0.95 20 2.14 20L17.85 20C19.04 20 20 19.04 20 17.85L20 2.14C20 0.95 19.04 0 17.85 0ZM9.99 17.01C8.8 17.01 7.64 16.71 6.61 16.15L2.85 17.14L3.86 13.47C3.24 12.4 2.91 11.18 2.91 9.93C2.91 6.03 6.09 2.85 9.99 2.85C11.88 2.85 13.66 3.59 15 4.93C16.33 6.27 17.14 8.04 17.14 9.94C17.14 13.84 13.89 17.01 9.99 17.01Z" fill="#FFFFFF" fill-opacity="1.000000" fill-rule="nonzero"/>
</svg>
