<svg width="20.000000" height="20.000000" viewBox="0 0 20 20" fill="none" xmlns="http://www.w3.org/2000/svg" xmlns:xlink="http://www.w3.org/1999/xlink">
	<desc>
			Created with Pixso.
	</desc>
	<defs/>
	<path id="Vector" d="M13.06 0L6.93 0C1.32 0 0 1.32 0 6.93L0 13.06C0 18.67 1.32 20 6.93 20L13.06 20C18.67 20 20 18.67 20 13.06L20 6.93C20 1.32 18.65 0 13.06 0ZM16.14 14.26L14.69 14.26C14.14 14.26 13.97 13.83 12.98 12.82C12.12 11.99 11.74 11.88 11.53 11.88C11.23 11.88 11.14 11.96 11.14 12.37L11.14 13.69C11.14 14.04 11.03 14.25 10.1 14.25C8.56 14.25 6.85 13.32 5.66 11.58C3.85 9.04 3.35 7.14 3.35 6.74C3.35 6.53 3.44 6.33 3.85 6.33L5.3 6.33C5.67 6.33 5.81 6.5 5.95 6.9C6.67 8.97 7.87 10.79 8.36 10.79C8.55 10.79 8.63 10.71 8.63 10.24L8.63 8.1C8.57 7.11 8.05 7.02 8.05 6.67C8.05 6.5 8.19 6.33 8.42 6.33L10.71 6.33C11.02 6.33 11.13 6.5 11.13 6.87L11.13 9.76C11.13 10.07 11.27 10.18 11.35 10.18C11.54 10.18 11.69 10.07 12.03 9.73C13.08 8.56 13.82 6.76 13.82 6.76C13.92 6.54 14.09 6.35 14.46 6.35L15.91 6.35C16.35 6.35 16.45 6.57 16.35 6.88C16.17 7.73 14.39 10.24 14.39 10.24C14.23 10.5 14.18 10.61 14.39 10.89C14.54 11.1 15.05 11.54 15.39 11.93C16.01 12.64 16.49 13.23 16.62 13.64C16.76 14.05 16.55 14.26 16.14 14.26L16.14 14.26Z" fill="#FFFFFF" fill-opacity="1.000000" fill-rule="nonzero"/>
</svg>
